<svg xmlns="http://www.w3.org/2000/svg" viewBox="0 0 1000 1000"><g stroke="#000" stroke-linecap="round" fill="#000"><line x1="505.0" y1="500.0" x2="505.1" y2="500.4" stroke-width="1.6"/><line x1="505.1" y1="500.4" x2="505.1" y2="500.7" stroke-width="1.6"/><line x1="505.1" y1="500.7" x2="505.1" y2="501.1" stroke-width="1.6"/><line x1="505.1" y1="501.1" x2="505.1" y2="501.5" stroke-width="1.6"/><line x1="505.1" y1="501.5" x2="505.0" y2="501.8" stroke-width="1.6"/><line x1="505.0" y1="501.8" x2="504.9" y2="502.2" stroke-width="1.6"/><line x1="504.9" y1="502.2" x2="504.8" y2="502.6" stroke-width="1.6"/><line x1="504.8" y1="502.6" x2="504.7" y2="502.9" stroke-width="1.6"/><line x1="504.7" y1="502.9" x2="504.6" y2="503.3" stroke-width="1.6"/><line x1="504.6" y1="503.3" x2="504.4" y2="503.7" stroke-width="1.6"/><line x1="504.4" y1="503.7" x2="504.2" y2="504.0" stroke-width="1.6"/><line x1="504.2" y1="504.0" x2="503.9" y2="504.4" stroke-width="1.6"/><line x1="503.9" y1="504.4" x2="503.7" y2="504.7" stroke-width="1.6"/><line x1="503.7" y1="504.7" x2="503.4" y2="505.0" stroke-width="1.6"/><line x1="503.4" y1="505.0" x2="503.0" y2="505.3" stroke-width="1.6"/><line x1="503.0" y1="505.3" x2="502.7" y2="505.6" stroke-width="1.6"/><line x1="502.7" y1="505.6" x2="502.3" y2="505.8" stroke-width="1.6"/><line x1="502.3" y1="505.8" x2="502.0" y2="506.0" stroke-width="1.6"/><line x1="502.0" y1="506.0" x2="501.6" y2="506.2" stroke-width="1.6"/><line x1="501.6" y1="506.2" x2="501.1" y2="506.4" stroke-width="1.6"/><line x1="501.1" y1="506.4" x2="500.7" y2="506.6" stroke-width="1.6"/><line x1="500.7" y1="506.6" x2="500.2" y2="506.7" stroke-width="1.6"/><line x1="500.2" y1="506.7" x2="499.8" y2="506.8" stroke-width="1.6"/><line x1="499.8" y1="506.8" x2="499.3" y2="506.8" stroke-width="1.6"/><line x1="499.3" y1="506.8" x2="498.8" y2="506.9" stroke-width="1.6"/><line x1="498.8" y1="506.9" x2="498.3" y2="506.8" stroke-width="1.6"/><line x1="498.3" y1="506.8" x2="497.8" y2="506.8" stroke-width="1.6"/><line x1="497.8" y1="506.8" x2="497.3" y2="506.7" stroke-width="1.6"/><line x1="497.3" y1="506.7" x2="496.8" y2="506.6" stroke-width="1.6"/><line x1="496.8" y1="506.6" x2="496.3" y2="506.4" stroke-width="1.6"/><line x1="496.3" y1="506.4" x2="495.8" y2="506.3" stroke-width="1.7"/><line x1="495.8" y1="506.3" x2="495.3" y2="506.0" stroke-width="1.7"/><line x1="495.3" y1="506.0" x2="494.8" y2="505.8" stroke-width="1.7"/><line x1="494.8" y1="505.8" x2="494.4" y2="505.5" stroke-width="1.7"/><line x1="494.4" y1="505.5" x2="493.9" y2="505.1" stroke-width="1.7"/><line x1="493.9" y1="505.1" x2="493.5" y2="504.7" stroke-width="1.7"/><line x1="493.5" y1="504.7" x2="493.1" y2="504.3" stroke-width="1.7"/><line x1="493.1" y1="504.3" x2="492.7" y2="503.9" stroke-width="1.7"/><line x1="492.7" y1="503.9" x2="492.3" y2="503.4" stroke-width="1.7"/><line x1="492.3" y1="503.4" x2="492.0" y2="502.9" stroke-width="1.7"/><line x1="492.0" y1="502.9" x2="491.7" y2="502.4" stroke-width="1.7"/><line x1="491.7" y1="502.4" x2="491.5" y2="501.8" stroke-width="1.7"/><line x1="491.5" y1="501.8" x2="491.2" y2="501.2" stroke-width="1.7"/><line x1="491.2" y1="501.2" x2="491.1" y2="500.6" stroke-width="1.7"/><line x1="491.1" y1="500.6" x2="490.9" y2="500.0" stroke-width="1.7"/><line x1="490.9" y1="500.0" x2="490.8" y2="499.4" stroke-width="1.7"/><line x1="490.8" y1="499.4" x2="490.8" y2="498.7" stroke-width="1.7"/><line x1="490.8" y1="498.7" x2="490.8" y2="498.0" stroke-width="1.7"/><line x1="490.8" y1="498.0" x2="490.8" y2="497.4" stroke-width="1.7"/><line x1="490.8" y1="497.4" x2="490.9" y2="496.7" stroke-width="1.7"/><line x1="490.9" y1="496.7" x2="491.0" y2="496.0" stroke-width="1.7"/><line x1="491.0" y1="496.0" x2="491.2" y2="495.3" stroke-width="1.7"/><line x1="491.2" y1="495.3" x2="491.4" y2="494.6" stroke-width="1.7"/><line x1="491.4" y1="494.6" x2="491.7" y2="494.0" stroke-width="1.7"/><line x1="491.7" y1="494.0" x2="492.1" y2="493.3" stroke-width="1.7"/><line x1="492.1" y1="493.3" x2="492.4" y2="492.7" stroke-width="1.8"/><line x1="492.4" y1="492.7" x2="492.9" y2="492.1" stroke-width="1.8"/><line x1="492.9" y1="492.1" x2="493.4" y2="491.5" stroke-width="1.8"/><line x1="493.4" y1="491.5" x2="493.9" y2="490.9" stroke-width="1.8"/><line x1="493.9" y1="490.9" x2="494.5" y2="490.4" stroke-width="1.8"/><line x1="494.5" y1="490.4" x2="495.1" y2="489.9" stroke-width="1.8"/><line x1="495.1" y1="489.9" x2="495.7" y2="489.4" stroke-width="1.8"/><line x1="495.7" y1="489.4" x2="496.4" y2="489.0" stroke-width="1.8"/><line x1="496.4" y1="489.0" x2="497.2" y2="488.7" stroke-width="1.8"/><line x1="497.2" y1="488.7" x2="498.0" y2="488.3" stroke-width="1.8"/><line x1="498.0" y1="488.3" x2="498.8" y2="488.1" stroke-width="1.8"/><line x1="498.8" y1="488.1" x2="499.6" y2="487.8" stroke-width="1.8"/><line x1="499.6" y1="487.8" x2="500.4" y2="487.7" stroke-width="1.8"/><line x1="500.4" y1="487.7" x2="501.3" y2="487.6" stroke-width="1.8"/><line x1="501.3" y1="487.6" x2="502.2" y2="487.5" stroke-width="1.8"/><line x1="502.2" y1="487.5" x2="503.1" y2="487.6" stroke-width="1.8"/><line x1="503.1" y1="487.6" x2="504.0" y2="487.6" stroke-width="1.8"/><line x1="504.0" y1="487.6" x2="504.9" y2="487.8" stroke-width="1.8"/><line x1="504.9" y1="487.8" x2="505.9" y2="488.0" stroke-width="1.8"/><line x1="505.9" y1="488.0" x2="506.8" y2="488.3" stroke-width="1.9"/><line x1="506.8" y1="488.3" x2="507.7" y2="488.6" stroke-width="1.9"/><line x1="507.7" y1="488.6" x2="508.6" y2="489.1" stroke-width="1.9"/><line x1="508.6" y1="489.1" x2="509.4" y2="489.6" stroke-width="1.9"/><line x1="509.4" y1="489.6" x2="510.3" y2="490.1" stroke-width="1.9"/><line x1="510.3" y1="490.1" x2="511.1" y2="490.7" stroke-width="1.9"/><line x1="511.1" y1="490.7" x2="511.9" y2="491.4" stroke-width="1.9"/><line x1="511.9" y1="491.4" x2="512.6" y2="492.2" stroke-width="1.9"/><line x1="512.6" y1="492.2" x2="513.3" y2="493.0" stroke-width="1.9"/><line x1="513.3" y1="493.0" x2="513.9" y2="493.8" stroke-width="1.9"/><line x1="513.9" y1="493.8" x2="514.5" y2="494.7" stroke-width="1.9"/><line x1="514.5" y1="494.7" x2="515.0" y2="495.7" stroke-width="1.9"/><line x1="515.0" y1="495.7" x2="515.5" y2="496.7" stroke-width="1.9"/><line x1="515.5" y1="496.7" x2="515.9" y2="497.8" stroke-width="1.9"/><line x1="515.9" y1="497.8" x2="516.2" y2="498.9" stroke-width="1.9"/><line x1="516.2" y1="498.9" x2="516.5" y2="500.0" stroke-width="2.0"/><line x1="516.5" y1="500.0" x2="516.7" y2="501.2" stroke-width="2.0"/><line x1="516.7" y1="501.2" x2="516.8" y2="502.4" stroke-width="2.0"/><line x1="516.8" y1="502.4" x2="516.8" y2="503.6" stroke-width="2.0"/><line x1="516.8" y1="503.6" x2="516.7" y2="504.8" stroke-width="2.0"/><line x1="516.7" y1="504.8" x2="516.6" y2="506.1" stroke-width="2.0"/><line x1="516.6" y1="506.1" x2="516.3" y2="507.3" stroke-width="2.0"/><line x1="516.3" y1="507.3" x2="516.0" y2="508.5" stroke-width="2.0"/><line x1="516.0" y1="508.5" x2="515.5" y2="509.7" stroke-width="2.0"/><line x1="515.5" y1="509.7" x2="515.0" y2="511.0" stroke-width="2.0"/><line x1="515.0" y1="511.0" x2="514.4" y2="512.1" stroke-width="2.0"/><line x1="514.4" y1="512.1" x2="513.7" y2="513.3" stroke-width="2.0"/><line x1="513.7" y1="513.3" x2="512.9" y2="514.4" stroke-width="2.0"/><line x1="512.9" y1="514.4" x2="512.0" y2="515.5" stroke-width="2.1"/><line x1="512.0" y1="515.5" x2="511.1" y2="516.5" stroke-width="2.1"/><line x1="511.1" y1="516.5" x2="510.0" y2="517.5" stroke-width="2.1"/><line x1="510.0" y1="517.5" x2="508.9" y2="518.4" stroke-width="2.1"/><line x1="508.9" y1="518.4" x2="507.7" y2="519.2" stroke-width="2.1"/><line x1="507.7" y1="519.2" x2="506.4" y2="519.9" stroke-width="2.1"/><line x1="506.4" y1="519.9" x2="505.1" y2="520.6" stroke-width="2.1"/><line x1="505.1" y1="520.6" x2="503.7" y2="521.2" stroke-width="2.1"/><line x1="503.7" y1="521.2" x2="502.2" y2="521.7" stroke-width="2.1"/><line x1="502.2" y1="521.7" x2="500.7" y2="522.1" stroke-width="2.1"/><line x1="500.7" y1="522.1" x2="499.2" y2="522.4" stroke-width="2.1"/><line x1="499.2" y1="522.4" x2="497.6" y2="522.6" stroke-width="2.2"/><line x1="497.6" y1="522.6" x2="496.0" y2="522.6" stroke-width="2.2"/><line x1="496.0" y1="522.6" x2="494.3" y2="522.6" stroke-width="2.2"/><line x1="494.3" y1="522.6" x2="492.7" y2="522.4" stroke-width="2.2"/><line x1="492.7" y1="522.4" x2="491.0" y2="522.2" stroke-width="2.2"/><line x1="491.0" y1="522.2" x2="489.3" y2="521.8" stroke-width="2.2"/><line x1="489.3" y1="521.8" x2="487.7" y2="521.3" stroke-width="2.2"/><line x1="487.7" y1="521.3" x2="486.0" y2="520.6" stroke-width="2.2"/><line x1="486.0" y1="520.6" x2="484.4" y2="519.9" stroke-width="2.2"/><line x1="484.4" y1="519.9" x2="482.9" y2="519.0" stroke-width="2.3"/><line x1="482.9" y1="519.0" x2="481.3" y2="518.0" stroke-width="2.3"/><line x1="481.3" y1="518.0" x2="479.9" y2="516.8" stroke-width="2.3"/><line x1="479.9" y1="516.8" x2="478.4" y2="515.6" stroke-width="2.3"/><line x1="478.4" y1="515.6" x2="477.1" y2="514.2" stroke-width="2.3"/><line x1="477.1" y1="514.2" x2="475.9" y2="512.8" stroke-width="2.3"/><line x1="475.9" y1="512.8" x2="474.7" y2="511.2" stroke-width="2.3"/><line x1="474.7" y1="511.2" x2="473.6" y2="509.5" stroke-width="2.3"/><line x1="473.6" y1="509.5" x2="472.7" y2="507.8" stroke-width="2.3"/><line x1="472.7" y1="507.8" x2="471.8" y2="505.9" stroke-width="2.4"/><line x1="471.8" y1="505.9" x2="471.1" y2="504.0" stroke-width="2.4"/><line x1="471.1" y1="504.0" x2="470.5" y2="502.0" stroke-width="2.4"/><line x1="470.5" y1="502.0" x2="470.0" y2="499.9" stroke-width="2.4"/><line x1="470.0" y1="499.9" x2="469.7" y2="497.8" stroke-width="2.4"/><line x1="469.7" y1="497.8" x2="469.5" y2="495.7" stroke-width="2.4"/><line x1="469.5" y1="495.7" x2="469.5" y2="493.5" stroke-width="2.4"/><line x1="469.5" y1="493.5" x2="469.6" y2="491.2" stroke-width="2.5"/><line x1="469.6" y1="491.2" x2="469.9" y2="489.0" stroke-width="2.5"/><line x1="469.9" y1="489.0" x2="470.4" y2="486.7" stroke-width="2.5"/><line x1="470.4" y1="486.7" x2="471.0" y2="484.5" stroke-width="2.5"/><line x1="471.0" y1="484.5" x2="471.8" y2="482.3" stroke-width="2.5"/><line x1="471.8" y1="482.3" x2="472.7" y2="480.1" stroke-width="2.5"/><line x1="472.7" y1="480.1" x2="473.8" y2="477.9" stroke-width="2.5"/><line x1="473.8" y1="477.9" x2="475.1" y2="475.8" stroke-width="2.6"/><line x1="475.1" y1="475.8" x2="476.5" y2="473.8" stroke-width="2.6"/><line x1="476.5" y1="473.8" x2="478.1" y2="471.9" stroke-width="2.6"/><line x1="478.1" y1="471.9" x2="479.9" y2="470.0" stroke-width="2.6"/><line x1="479.9" y1="470.0" x2="481.8" y2="468.3" stroke-width="2.6"/><line x1="481.8" y1="468.3" x2="483.8" y2="466.6" stroke-width="2.6"/><line x1="483.8" y1="466.6" x2="486.0" y2="465.1" stroke-width="2.7"/><line x1="486.0" y1="465.1" x2="488.3" y2="463.8" stroke-width="2.7"/><line x1="488.3" y1="463.8" x2="490.8" y2="462.6" stroke-width="2.7"/><line x1="490.8" y1="462.6" x2="493.3" y2="461.5" stroke-width="2.7"/><line x1="493.3" y1="461.5" x2="495.9" y2="460.6" stroke-width="2.7"/><line x1="495.9" y1="460.6" x2="498.7" y2="459.9" stroke-width="2.7"/><line x1="498.7" y1="459.9" x2="501.5" y2="459.4" stroke-width="2.8"/><line x1="501.5" y1="459.4" x2="504.4" y2="459.0" stroke-width="2.8"/><line x1="504.4" y1="459.0" x2="507.3" y2="458.9" stroke-width="2.8"/><line x1="507.3" y1="458.9" x2="510.3" y2="459.0" stroke-width="2.8"/><line x1="510.3" y1="459.0" x2="513.3" y2="459.2" stroke-width="2.8"/><line x1="513.3" y1="459.2" x2="516.4" y2="459.7" stroke-width="2.8"/><line x1="516.4" y1="459.7" x2="519.4" y2="460.5" stroke-width="2.9"/><line x1="519.4" y1="460.5" x2="522.4" y2="461.4" stroke-width="2.9"/><line x1="522.4" y1="461.4" x2="525.4" y2="462.6" stroke-width="2.9"/><line x1="525.4" y1="462.6" x2="528.3" y2="463.9" stroke-width="2.9"/><line x1="528.3" y1="463.9" x2="531.2" y2="465.6" stroke-width="2.9"/><line x1="531.2" y1="465.6" x2="533.9" y2="467.4" stroke-width="3.0"/><line x1="533.9" y1="467.4" x2="536.6" y2="469.4" stroke-width="3.0"/><line x1="536.6" y1="469.4" x2="539.2" y2="471.7" stroke-width="3.0"/><line x1="539.2" y1="471.7" x2="541.6" y2="474.1" stroke-width="3.0"/><line x1="541.6" y1="474.1" x2="543.9" y2="476.8" stroke-width="3.1"/><line x1="543.9" y1="476.8" x2="546.0" y2="479.7" stroke-width="3.1"/><line x1="546.0" y1="479.7" x2="547.9" y2="482.7" stroke-width="3.1"/><line x1="547.9" y1="482.7" x2="549.7" y2="485.9" stroke-width="3.1"/><line x1="549.7" y1="485.9" x2="551.2" y2="489.2" stroke-width="3.1"/><line x1="551.2" y1="489.2" x2="552.5" y2="492.8" stroke-width="3.2"/><line x1="552.5" y1="492.8" x2="553.6" y2="496.4" stroke-width="3.2"/><line x1="553.6" y1="496.4" x2="554.5" y2="500.1" stroke-width="3.2"/><line x1="554.5" y1="500.1" x2="555.0" y2="504.0" stroke-width="3.2"/><line x1="555.0" y1="504.0" x2="555.4" y2="507.9" stroke-width="3.3"/><line x1="555.4" y1="507.9" x2="555.4" y2="511.9" stroke-width="3.3"/><line x1="555.4" y1="511.9" x2="555.2" y2="516.0" stroke-width="3.3"/><line x1="555.2" y1="516.0" x2="554.6" y2="520.1" stroke-width="3.3"/><line x1="554.6" y1="520.1" x2="553.8" y2="524.1" stroke-width="3.4"/><line x1="553.8" y1="524.1" x2="552.7" y2="528.2" stroke-width="3.4"/><line x1="552.7" y1="528.2" x2="551.3" y2="532.2" stroke-width="3.4"/><line x1="551.3" y1="532.2" x2="549.6" y2="536.2" stroke-width="3.4"/><line x1="549.6" y1="536.2" x2="547.5" y2="540.1" stroke-width="3.5"/><line x1="547.5" y1="540.1" x2="545.2" y2="543.9" stroke-width="3.5"/><line x1="545.2" y1="543.9" x2="542.6" y2="547.6" stroke-width="3.5"/><line x1="542.6" y1="547.6" x2="539.7" y2="551.1" stroke-width="3.6"/><line x1="539.7" y1="551.1" x2="536.5" y2="554.5" stroke-width="3.6"/><line x1="536.5" y1="554.5" x2="533.1" y2="557.6" stroke-width="3.6"/><line x1="533.1" y1="557.6" x2="529.4" y2="560.6" stroke-width="3.6"/><line x1="529.4" y1="560.6" x2="525.4" y2="563.3" stroke-width="3.7"/><line x1="525.4" y1="563.3" x2="521.2" y2="565.8" stroke-width="3.7"/><line x1="521.2" y1="565.8" x2="516.8" y2="568.0" stroke-width="3.7"/><line x1="516.8" y1="568.0" x2="512.1" y2="570.0" stroke-width="3.8"/><line x1="512.1" y1="570.0" x2="507.3" y2="571.6" stroke-width="3.8"/><line x1="507.3" y1="571.6" x2="502.3" y2="572.9" stroke-width="3.8"/><line x1="502.3" y1="572.9" x2="497.2" y2="573.8" stroke-width="3.9"/><line x1="497.2" y1="573.8" x2="492.0" y2="574.5" stroke-width="3.9"/><line x1="492.0" y1="574.5" x2="486.6" y2="574.7" stroke-width="3.9"/><line x1="486.6" y1="574.7" x2="481.2" y2="574.6" stroke-width="4.0"/><line x1="481.2" y1="574.6" x2="475.7" y2="574.0" stroke-width="4.0"/><line x1="475.7" y1="574.0" x2="470.2" y2="573.1" stroke-width="4.0"/><line x1="470.2" y1="573.1" x2="464.7" y2="571.8" stroke-width="4.1"/><line x1="464.7" y1="571.8" x2="459.2" y2="570.1" stroke-width="4.1"/><line x1="459.2" y1="570.1" x2="453.8" y2="568.0" stroke-width="4.1"/><line x1="453.8" y1="568.0" x2="448.5" y2="565.5" stroke-width="4.2"/><line x1="448.5" y1="565.5" x2="443.3" y2="562.5" stroke-width="4.2"/><line x1="443.3" y1="562.5" x2="438.3" y2="559.2" stroke-width="4.3"/><line x1="438.3" y1="559.2" x2="433.4" y2="555.5" stroke-width="4.3"/><line x1="433.4" y1="555.5" x2="428.8" y2="551.4" stroke-width="4.3"/><line x1="428.8" y1="551.4" x2="424.4" y2="546.9" stroke-width="4.4"/><line x1="424.4" y1="546.9" x2="420.3" y2="542.1" stroke-width="4.4"/><line x1="420.3" y1="542.1" x2="416.4" y2="536.9" stroke-width="4.4"/><line x1="416.4" y1="536.9" x2="412.9" y2="531.4" stroke-width="4.5"/><line x1="412.9" y1="531.4" x2="409.7" y2="525.6" stroke-width="4.5"/><line x1="409.7" y1="525.6" x2="406.9" y2="519.5" stroke-width="4.6"/><line x1="406.9" y1="519.5" x2="404.5" y2="513.1" stroke-width="4.6"/><line x1="404.5" y1="513.1" x2="402.6" y2="506.5" stroke-width="4.7"/><line x1="402.6" y1="506.5" x2="401.1" y2="499.7" stroke-width="4.7"/><line x1="401.1" y1="499.7" x2="400.0" y2="492.7" stroke-width="4.7"/><line x1="400.0" y1="492.7" x2="399.4" y2="485.5" stroke-width="4.8"/><line x1="399.4" y1="485.5" x2="399.4" y2="478.3" stroke-width="4.8"/><line x1="399.4" y1="478.3" x2="399.8" y2="470.9" stroke-width="4.9"/><line x1="399.8" y1="470.9" x2="400.8" y2="463.5" stroke-width="4.9"/><line x1="400.8" y1="463.5" x2="402.3" y2="456.1" stroke-width="5.0"/><line x1="402.3" y1="456.1" x2="404.3" y2="448.7" stroke-width="5.0"/><line x1="404.3" y1="448.7" x2="406.9" y2="441.4" stroke-width="5.1"/><line x1="406.9" y1="441.4" x2="410.0" y2="434.2" stroke-width="5.1"/><line x1="410.0" y1="434.2" x2="413.7" y2="427.1" stroke-width="5.2"/><line x1="413.7" y1="427.1" x2="417.9" y2="420.2" stroke-width="5.2"/><line x1="417.9" y1="420.2" x2="422.7" y2="413.5" stroke-width="5.3"/><line x1="422.7" y1="413.5" x2="427.9" y2="407.1" stroke-width="5.3"/><line x1="427.9" y1="407.1" x2="433.7" y2="401.0" stroke-width="5.4"/><line x1="433.7" y1="401.0" x2="440.0" y2="395.2" stroke-width="5.4"/><line x1="440.0" y1="395.2" x2="446.7" y2="389.9" stroke-width="5.5"/><line x1="446.7" y1="389.9" x2="454.0" y2="384.9" stroke-width="5.5"/><line x1="454.0" y1="384.9" x2="461.6" y2="380.4" stroke-width="5.6"/><line x1="461.6" y1="380.4" x2="469.6" y2="376.4" stroke-width="5.6"/><line x1="469.6" y1="376.4" x2="478.0" y2="372.9" stroke-width="5.7"/><line x1="478.0" y1="372.9" x2="486.8" y2="369.9" stroke-width="5.8"/><line x1="486.8" y1="369.9" x2="495.8" y2="367.6" stroke-width="5.8"/><line x1="495.8" y1="367.6" x2="505.2" y2="365.8" stroke-width="5.9"/><line x1="505.2" y1="365.8" x2="514.7" y2="364.8" stroke-width="5.9"/><line x1="514.7" y1="364.8" x2="524.4" y2="364.3" stroke-width="6.0"/><line x1="524.4" y1="364.3" x2="534.3" y2="364.6" stroke-width="6.1"/><line x1="534.3" y1="364.6" x2="544.2" y2="365.5" stroke-width="6.1"/><line x1="544.2" y1="365.5" x2="554.2" y2="367.2" stroke-width="6.2"/><line x1="554.2" y1="367.2" x2="564.2" y2="369.6" stroke-width="6.2"/><line x1="564.2" y1="369.6" x2="574.1" y2="372.7" stroke-width="6.3"/><line x1="574.1" y1="372.7" x2="583.9" y2="376.5" stroke-width="6.4"/><line x1="583.9" y1="376.5" x2="593.6" y2="381.1" stroke-width="6.4"/><line x1="593.6" y1="381.1" x2="603.0" y2="386.5" stroke-width="6.5"/><line x1="603.0" y1="386.5" x2="612.1" y2="392.5" stroke-width="6.6"/><line x1="612.1" y1="392.5" x2="621.0" y2="399.3" stroke-width="6.6"/><line x1="621.0" y1="399.3" x2="629.4" y2="406.7" stroke-width="6.7"/><line x1="629.4" y1="406.7" x2="637.4" y2="414.9" stroke-width="6.8"/><line x1="637.4" y1="414.9" x2="644.9" y2="423.6" stroke-width="6.9"/><line x1="644.9" y1="423.6" x2="651.9" y2="433.1" stroke-width="6.9"/><line x1="651.9" y1="433.1" x2="658.3" y2="443.1" stroke-width="7.0"/><line x1="658.3" y1="443.1" x2="664.0" y2="453.6" stroke-width="7.1"/><line x1="664.0" y1="453.6" x2="669.1" y2="464.7" stroke-width="7.2"/><line x1="669.1" y1="464.7" x2="673.4" y2="476.3" stroke-width="7.2"/><line x1="673.4" y1="476.3" x2="677.0" y2="488.3" stroke-width="7.3"/><line x1="677.0" y1="488.3" x2="679.8" y2="500.7" stroke-width="7.4"/><line x1="679.8" y1="500.7" x2="681.7" y2="513.4" stroke-width="7.5"/><line x1="681.7" y1="513.4" x2="682.7" y2="526.4" stroke-width="7.6"/><line x1="682.7" y1="526.4" x2="682.8" y2="539.6" stroke-width="7.6"/><line x1="682.8" y1="539.6" x2="682.0" y2="553.0" stroke-width="7.7"/><line x1="682.0" y1="553.0" x2="680.2" y2="566.4" stroke-width="7.8"/><line x1="680.2" y1="566.4" x2="677.5" y2="579.9" stroke-width="7.9"/><line x1="677.5" y1="579.9" x2="673.8" y2="593.3" stroke-width="8.0"/><line x1="673.8" y1="593.3" x2="669.1" y2="606.6" stroke-width="8.1"/><line x1="669.1" y1="606.6" x2="663.4" y2="619.7" stroke-width="8.2"/><line x1="663.4" y1="619.7" x2="656.7" y2="632.6" stroke-width="8.2"/><line x1="656.7" y1="632.6" x2="649.0" y2="645.1" stroke-width="8.3"/><line x1="649.0" y1="645.1" x2="640.4" y2="657.2" stroke-width="8.4"/><line x1="640.4" y1="657.2" x2="630.8" y2="668.8" stroke-width="8.5"/><line x1="630.8" y1="668.8" x2="620.3" y2="679.9" stroke-width="8.6"/><line x1="620.3" y1="679.9" x2="608.9" y2="690.4" stroke-width="8.7"/><line x1="608.9" y1="690.4" x2="596.6" y2="700.2" stroke-width="8.8"/><line x1="596.6" y1="700.2" x2="583.5" y2="709.2" stroke-width="8.9"/><line x1="583.5" y1="709.2" x2="569.6" y2="717.4" stroke-width="9.0"/><line x1="569.6" y1="717.4" x2="555.0" y2="724.6" stroke-width="9.1"/><line x1="555.0" y1="724.6" x2="539.7" y2="731.0" stroke-width="9.2"/><line x1="539.7" y1="731.0" x2="523.8" y2="736.3" stroke-width="9.3"/><line x1="523.8" y1="736.3" x2="507.4" y2="740.6" stroke-width="9.4"/><line x1="507.4" y1="740.6" x2="490.5" y2="743.7" stroke-width="9.5"/><line x1="490.5" y1="743.7" x2="473.1" y2="745.7" stroke-width="9.6"/><line x1="473.1" y1="745.7" x2="455.5" y2="746.5" stroke-width="9.7"/><line x1="455.5" y1="746.5" x2="437.6" y2="746.0" stroke-width="9.9"/><line x1="437.6" y1="746.0" x2="419.5" y2="744.3" stroke-width="10.0"/><line x1="419.5" y1="744.3" x2="401.3" y2="741.2" stroke-width="10.1"/><line x1="401.3" y1="741.2" x2="383.2" y2="736.9" stroke-width="10.2"/><line x1="383.2" y1="736.9" x2="365.2" y2="731.2" stroke-width="10.3"/><line x1="365.2" y1="731.2" x2="347.4" y2="724.2" stroke-width="10.4"/><line x1="347.4" y1="724.2" x2="329.9" y2="715.8" stroke-width="10.6"/><line x1="329.9" y1="715.8" x2="312.7" y2="706.2" stroke-width="10.7"/><line x1="312.7" y1="706.2" x2="296.1" y2="695.2" stroke-width="10.8"/><line x1="296.1" y1="695.2" x2="280.1" y2="682.9" stroke-width="10.9"/><line x1="280.1" y1="682.9" x2="264.8" y2="669.3" stroke-width="11.1"/><line x1="264.8" y1="669.3" x2="250.3" y2="654.5" stroke-width="11.2"/><line x1="250.3" y1="654.5" x2="236.6" y2="638.5" stroke-width="11.3"/><line x1="236.6" y1="638.5" x2="224.0" y2="621.4" stroke-width="11.5"/><line x1="224.0" y1="621.4" x2="212.4" y2="603.2" stroke-width="11.6"/><line x1="212.4" y1="603.2" x2="201.9" y2="584.0" stroke-width="11.7"/><line x1="201.9" y1="584.0" x2="192.7" y2="563.9" stroke-width="11.9"/><line x1="192.7" y1="563.9" x2="184.9" y2="542.8" stroke-width="12.0"/><line x1="184.9" y1="542.8" x2="178.4" y2="521.0" stroke-width="12.1"/><line x1="178.4" y1="521.0" x2="173.4" y2="498.5" stroke-width="12.3"/><line x1="173.4" y1="498.5" x2="170.0" y2="475.4" stroke-width="12.4"/><line x1="170.0" y1="475.4" x2="168.1" y2="451.8" stroke-width="12.6"/><line x1="168.1" y1="451.8" x2="167.9" y2="427.8" stroke-width="12.7"/><line x1="167.9" y1="427.8" x2="169.4" y2="403.6" stroke-width="12.9"/><line x1="169.4" y1="403.6" x2="172.6" y2="379.1" stroke-width="13.0"/><line x1="172.6" y1="379.1" x2="177.6" y2="354.7" stroke-width="13.2"/><line x1="177.6" y1="354.7" x2="184.4" y2="330.3" stroke-width="13.3"/><line x1="184.4" y1="330.3" x2="192.9" y2="306.1" stroke-width="13.5"/><line x1="192.9" y1="306.1" x2="203.3" y2="282.3" stroke-width="13.7"/><line x1="203.3" y1="282.3" x2="215.5" y2="259.0" stroke-width="13.8"/><line x1="215.5" y1="259.0" x2="229.4" y2="236.2" stroke-width="14.0"/><line x1="229.4" y1="236.2" x2="245.1" y2="214.2" stroke-width="14.2"/><line x1="245.1" y1="214.2" x2="262.5" y2="193.1" stroke-width="14.3"/><line x1="262.5" y1="193.1" x2="281.7" y2="173.0" stroke-width="14.5"/><line x1="281.7" y1="173.0" x2="302.4" y2="154.0" stroke-width="14.7"/><line x1="302.4" y1="154.0" x2="324.7" y2="136.2" stroke-width="14.9"/><line x1="324.7" y1="136.2" x2="348.5" y2="119.9" stroke-width="15.0"/><line x1="348.5" y1="119.9" x2="373.8" y2="105.0" stroke-width="15.2"/><line x1="373.8" y1="105.0" x2="400.3" y2="91.8" stroke-width="15.4"/><line x1="400.3" y1="91.8" x2="428.1" y2="80.3" stroke-width="15.6"/><line x1="428.1" y1="80.3" x2="457.0" y2="70.7" stroke-width="15.8"/><line x1="457.0" y1="70.7" x2="486.9" y2="63.0" stroke-width="16.0"/><line x1="486.9" y1="63.0" x2="517.6" y2="57.3" stroke-width="16.2"/><line x1="517.6" y1="57.3" x2="549.1" y2="53.7" stroke-width="16.4"/><line x1="549.1" y1="53.7" x2="581.2" y2="52.3" stroke-width="16.6"/><circle cx="470.0" cy="500.0" r="3.7"/><circle cx="500.0" cy="459.6" r="4.2"/><circle cx="554.4" cy="500.0" r="4.8"/><circle cx="500.0" cy="573.4" r="5.6"/><circle cx="401.1" cy="500.0" r="6.6"/><circle cx="500.0" cy="366.7" r="8.1"/><circle cx="679.6" cy="500.0" r="10.0"/><circle cx="500.0" cy="742.1" r="12.6"/><circle cx="173.7" cy="500.0" r="16.1"/><circle cx="500.0" cy="60.2" r="20.8"/></g></svg>
