<svg xmlns="http://www.w3.org/2000/svg" viewBox="0 0 160 100">
<rect width="160" height="100" fill="#0b1216"/>
<radialGradient id="g" cx="40%" cy="45%" r="80%"><stop offset="0" stop-color="#33c2d2" stop-opacity=".26"/><stop offset="1" stop-color="#33c2d2" stop-opacity="0"/></radialGradient>
<rect width="160" height="100" fill="url(#g)"/>
<g stroke="#82a0a8" stroke-width="1.6" opacity=".55" stroke-linecap="round">
<line x1="24" y1="14" x2="24" y2="90"/>
<line x1="38" y1="14" x2="38" y2="90"/>
<line x1="52" y1="14" x2="52" y2="90"/>
<line x1="66" y1="14" x2="66" y2="90"/>
<line x1="80" y1="14" x2="80" y2="90"/>
<line x1="94" y1="14" x2="94" y2="90"/>
<line x1="108" y1="14" x2="108" y2="90"/>
<line x1="122" y1="14" x2="122" y2="90"/>
<line x1="136" y1="14" x2="136" y2="90"/>
</g><g fill="none" stroke-linecap="round">
<line x1="23" y1="26" x2="39" y2="26" stroke="#33c2d2" stroke-width="3.2" opacity=".9"/>
<line x1="41" y1="26" x2="49" y2="26" stroke="#33c2d2" stroke-width="1.2" opacity=".45"/>
<line x1="51" y1="26" x2="67" y2="26" stroke="#33c2d2" stroke-width="3.2" opacity=".9"/>
<line x1="69" y1="26" x2="77" y2="26" stroke="#33c2d2" stroke-width="1.2" opacity=".45"/>
<line x1="79" y1="26" x2="95" y2="26" stroke="#33c2d2" stroke-width="3.2" opacity=".9"/>
<line x1="97" y1="26" x2="105" y2="26" stroke="#33c2d2" stroke-width="1.2" opacity=".45"/>
<line x1="107" y1="26" x2="123" y2="26" stroke="#33c2d2" stroke-width="3.2" opacity=".9"/>
<line x1="125" y1="26" x2="133" y2="26" stroke="#33c2d2" stroke-width="1.2" opacity=".45"/>
<line x1="27" y1="40" x2="35" y2="40" stroke="#e7b24c" stroke-width="1.2" opacity=".45"/>
<line x1="37" y1="40" x2="53" y2="40" stroke="#e7b24c" stroke-width="3.2" opacity=".9"/>
<line x1="55" y1="40" x2="63" y2="40" stroke="#e7b24c" stroke-width="1.2" opacity=".45"/>
<line x1="65" y1="40" x2="81" y2="40" stroke="#e7b24c" stroke-width="3.2" opacity=".9"/>
<line x1="83" y1="40" x2="91" y2="40" stroke="#e7b24c" stroke-width="1.2" opacity=".45"/>
<line x1="93" y1="40" x2="109" y2="40" stroke="#e7b24c" stroke-width="3.2" opacity=".9"/>
<line x1="111" y1="40" x2="119" y2="40" stroke="#e7b24c" stroke-width="1.2" opacity=".45"/>
<line x1="121" y1="40" x2="137" y2="40" stroke="#e7b24c" stroke-width="3.2" opacity=".9"/>
<line x1="23" y1="54" x2="39" y2="54" stroke="#8fd0a8" stroke-width="3.2" opacity=".9"/>
<line x1="41" y1="54" x2="49" y2="54" stroke="#8fd0a8" stroke-width="1.2" opacity=".45"/>
<line x1="51" y1="54" x2="67" y2="54" stroke="#8fd0a8" stroke-width="3.2" opacity=".9"/>
<line x1="69" y1="54" x2="77" y2="54" stroke="#8fd0a8" stroke-width="1.2" opacity=".45"/>
<line x1="79" y1="54" x2="95" y2="54" stroke="#8fd0a8" stroke-width="3.2" opacity=".9"/>
<line x1="97" y1="54" x2="105" y2="54" stroke="#8fd0a8" stroke-width="1.2" opacity=".45"/>
<line x1="107" y1="54" x2="123" y2="54" stroke="#8fd0a8" stroke-width="3.2" opacity=".9"/>
<line x1="125" y1="54" x2="133" y2="54" stroke="#8fd0a8" stroke-width="1.2" opacity=".45"/>
<line x1="27" y1="68" x2="35" y2="68" stroke="#c66bd6" stroke-width="1.2" opacity=".45"/>
<line x1="37" y1="68" x2="53" y2="68" stroke="#c66bd6" stroke-width="3.2" opacity=".9"/>
<line x1="55" y1="68" x2="63" y2="68" stroke="#c66bd6" stroke-width="1.2" opacity=".45"/>
<line x1="65" y1="68" x2="81" y2="68" stroke="#c66bd6" stroke-width="3.2" opacity=".9"/>
<line x1="83" y1="68" x2="91" y2="68" stroke="#c66bd6" stroke-width="1.2" opacity=".45"/>
<line x1="93" y1="68" x2="109" y2="68" stroke="#c66bd6" stroke-width="3.2" opacity=".9"/>
<line x1="111" y1="68" x2="119" y2="68" stroke="#c66bd6" stroke-width="1.2" opacity=".45"/>
<line x1="121" y1="68" x2="137" y2="68" stroke="#c66bd6" stroke-width="3.2" opacity=".9"/>
<path d="M158 86 C148 85 142 80 140 82" stroke="#9fb8e8" stroke-width="2" opacity=".85"/>
<line x1="125" y1="82" x2="133" y2="82" stroke="#9fb8e8" stroke-width="1" opacity=".35" stroke-dasharray="2 2"/>
</g></svg>
