<svg xmlns="http://www.w3.org/2000/svg" viewBox="0 0 160 100">
<rect width="160" height="100" fill="#0b1216"/>
<radialGradient id="g" cx="50%" cy="40%" r="85%"><stop offset="0" stop-color="#33c2d2" stop-opacity=".30"/><stop offset="1" stop-color="#33c2d2" stop-opacity="0"/></radialGradient>
<rect width="160" height="100" fill="url(#g)"/>
<g fill="none">
<ellipse cx="80" cy="26" rx="52" ry="11" stroke="#82a0a8" stroke-width="0.8" opacity=".35"/>
<ellipse cx="80" cy="44" rx="44" ry="9.5" stroke="#82a0a8" stroke-width="0.8" opacity=".3"/>
<ellipse cx="80" cy="61" rx="36" ry="8" stroke="#82a0a8" stroke-width="0.8" opacity=".26"/>
<ellipse cx="80" cy="77" rx="28" ry="6.5" stroke="#82a0a8" stroke-width="0.8" opacity=".22"/>
<path d="M46 22 A52 11 0 0 1 78 15" stroke="#33c2d2" stroke-width="2.4" opacity=".95" stroke-linecap="round"/>
<path d="M104 50 A44 9.5 0 0 1 62 52" stroke="#33c2d2" stroke-width="2" opacity=".8" stroke-linecap="round"/>
<path d="M58 68 A36 8 0 0 1 92 68.5" stroke="#e7b24c" stroke-width="2" opacity=".85" stroke-linecap="round"/>
<path d="M96 80 A28 6.5 0 0 1 72 82.5" stroke="#c66bd6" stroke-width="2.2" opacity=".9" stroke-linecap="round"/>
<path d="M62 20 Q80 52 88 80" stroke="#8fd0a8" stroke-width="1.2" opacity=".75"/>
<path d="M98 48 Q84 62 74 82" stroke="#9fb8e8" stroke-width="1" opacity=".65"/>
<path d="M52 51 Q78 60 90 69" stroke="#e7b24c" stroke-width="0.9" opacity=".6"/>
</g>
<line x1="112" y1="14" x2="96" y2="84" stroke="#eff6f5" stroke-width="1" opacity=".8"/>
<circle cx="88" cy="80" r="2.6" fill="#eff6f5"/>
</svg>
