<svg xmlns="http://www.w3.org/2000/svg" viewBox="0 0 160 100">
<rect width="160" height="100" fill="#081418"/>
<radialGradient id="g" cx="30%" cy="24%" r="88%"><stop offset="0" stop-color="#33c2d2" stop-opacity=".40"/><stop offset="1" stop-color="#33c2d2" stop-opacity="0"/></radialGradient>
<rect width="160" height="100" fill="url(#g)"/>
<g stroke="#7fd8e2" stroke-width="1" opacity=".22"><line x1="26" y1="26" x2="134" y2="26"/><line x1="26" y1="40" x2="134" y2="40"/><line x1="26" y1="54" x2="134" y2="54"/><line x1="26" y1="68" x2="134" y2="68"/><line x1="26" y1="82" x2="134" y2="82"/></g>
<line x1="26" y1="26" x2="134" y2="26" stroke="#33c2d2" stroke-width="1.6" opacity=".85"/>
<line x1="80" y1="20" x2="80" y2="88" stroke="#e7b24c" stroke-width="1.6" opacity=".75"/>
<g fill="#7fd8e2" opacity=".30"><circle cx="32" cy="40" r="2.4"/><circle cx="56" cy="40" r="2.4"/><circle cx="104" cy="40" r="2.4"/><circle cx="128" cy="40" r="2.4"/><circle cx="32" cy="54" r="2.4"/><circle cx="56" cy="54" r="2.4"/><circle cx="104" cy="54" r="2.4"/><circle cx="128" cy="54" r="2.4"/><circle cx="32" cy="68" r="2.4"/><circle cx="56" cy="68" r="2.4"/><circle cx="104" cy="68" r="2.4"/><circle cx="128" cy="68" r="2.4"/><circle cx="32" cy="82" r="2.4"/><circle cx="56" cy="82" r="2.4"/><circle cx="104" cy="82" r="2.4"/><circle cx="128" cy="82" r="2.4"/></g>
<g fill="#8fe4f0"><circle cx="32" cy="26" r="3.2"/><circle cx="56" cy="26" r="3.2"/><circle cx="104" cy="26" r="3.2"/><circle cx="128" cy="26" r="3.2"/></g>
<g fill="#e7b24c" opacity=".9"><circle cx="80" cy="40" r="3"/><circle cx="80" cy="54" r="3"/><circle cx="80" cy="68" r="3"/><circle cx="80" cy="82" r="3"/></g>
<circle cx="80" cy="26" r="4.4" fill="#eff6f5"/>
</svg>
